<?xml version="1.0" encoding="UTF-8"?>
<!DOCTYPE svg PUBLIC "-//W3C//DTD SVG 1.1//EN" "http://www.w3.org/Graphics/SVG/1.1/DTD/svg11.dtd">
<!-- Creator: CorelDRAW X7 -->
<svg xmlns="http://www.w3.org/2000/svg" xml:space="preserve" width="19.8966mm" height="21.6746mm" version="1.1" style="shape-rendering:geometricPrecision; text-rendering:geometricPrecision; image-rendering:optimizeQuality; fill-rule:evenodd; clip-rule:evenodd"
viewBox="0 0 1990 2167"
 xmlns:xlink="http://www.w3.org/1999/xlink">
 <defs>
  <style type="text/css">
   <![CDATA[
    .fil0 {fill:#D01C22;fill-rule:nonzero}
   ]]>
  </style>
 </defs>
 <g id="Layer_x0020_1">
  <metadata id="CorelCorpID_0Corel-Layer"/>
  <path class="fil0" d="M1931 1635l0 -35 0 -326 0 -174 0 -531 -437 218 -402 201c-3,-20 -12,-38 -25,-52l401 -201 371 -185 -752 0c4,-10 6,-21 6,-32 0,-9 -2,-18 -4,-26l760 0 -381 -191 -473 -236 -474 236 -380 191 760 0c-3,8 -4,17 -4,26 0,11 2,22 5,32l-752 0 371 185 401 201c-13,14 -22,32 -24,52l-403 -201 -436 -218 0 531 0 174 0 326 0 35 28 14 0 0 0 0 112 56 50 25 272 136 445 222 0 -994c9,3 19,5 29,5 10,0 20,-2 29,-5l0 994 444 -222 383 -191 0 0 52 -26 0 0 0 0 28 -14zm-907 -1023l0 296c-9,-3 -19,-5 -29,-5 -10,0 -20,2 -29,5l0 -296c9,3 19,4 29,4 10,0 20,-1 29,-4zm-16 -606l486 243 231 116 52 26 202 101 0 0 10 5 0 43 0 469 0 142 0 71 0 384 0 65 -8 4 -50 25 -80 40 -357 178 -486 243 -13 6 -13 -6 -486 -243 -247 -123 -72 -36 -18 -9 -100 -50 -59 -29 0 -38 0 -472 0 -259 0 -75 0 -287 0 -43 11 -5 198 -99 52 -26 234 -118 487 -243 13 -6 13 6zm62 575l265 417 266 416c-20,6 -37,17 -49,32l-266 -417 -265 -416c19,-6 36,-17 49,-32zm463 957l-538 0 -538 0c2,-9 4,-19 4,-29 0,-10 -2,-20 -4,-29l538 0 538 0c-3,9 -4,19 -4,29 0,10 1,20 4,29zm-1144 -124l266 -416 265 -417c13,15 30,26 49,32l-265 416 -266 417c-13,-15 -30,-26 -49,-32zm-26 -26c33,0 64,14 85,36l0 0c22,21 36,51 36,85 0,33 -14,63 -36,85l0 0c-21,22 -52,35 -85,35 -33,0 -63,-13 -85,-35l0 0c-22,-22 -35,-52 -35,-85 0,-34 13,-64 35,-85l0 0c22,-22 52,-36 85,-36zm53 68c-13,-14 -32,-22 -53,-22 -21,0 -39,8 -53,22 -13,13 -22,32 -22,53 0,20 9,39 22,53 14,13 32,22 53,22 21,0 40,-9 53,-22 14,-14 22,-33 22,-53 0,-21 -8,-40 -22,-53zm579 -575c33,0 63,13 85,35l0 0c22,22 35,52 35,85 0,33 -13,63 -35,85l0 0c-22,22 -52,35 -85,35 -33,0 -63,-13 -85,-35l0 0c-22,-22 -36,-52 -36,-85 0,-33 14,-63 36,-85l0 0c22,-22 52,-35 85,-35zm53 67c-14,-14 -32,-22 -53,-22 -21,0 -40,8 -53,22 -14,14 -22,32 -22,53 0,21 8,40 22,53 13,14 32,22 53,22 21,0 39,-8 53,-22 14,-13 22,-32 22,-53 0,-21 -8,-39 -22,-53zm578 440c34,0 64,14 86,36l0 0c21,21 35,51 35,85 0,33 -14,63 -35,85l0 0c-22,22 -52,35 -86,35 -33,0 -63,-13 -85,-35l0 0c-22,-22 -35,-52 -35,-85 0,-34 13,-64 35,-85l0 0c22,-22 52,-36 85,-36zm54 68c-14,-14 -33,-22 -54,-22 -20,0 -39,8 -53,22 -13,13 -22,32 -22,53 0,20 9,39 22,53 14,13 33,22 53,22 21,0 40,-9 54,-22 13,-14 22,-33 22,-53 0,-21 -9,-40 -22,-53zm-685 -1058c33,0 63,13 85,35l0 0c22,22 35,52 35,85 0,34 -13,64 -35,85l0 0c-22,22 -52,36 -85,36 -33,0 -63,-14 -85,-36l0 0c-22,-21 -36,-51 -36,-85 0,-33 14,-63 36,-85l0 0c22,-22 52,-35 85,-35zm53 67c-14,-13 -32,-22 -53,-22 -21,0 -40,9 -53,22 -14,14 -22,33 -22,53 0,21 8,40 22,53 13,14 32,22 53,22 21,0 39,-8 53,-22 14,-13 22,-32 22,-53 0,-20 -8,-39 -22,-53z"/>
 </g>
</svg>
